<svg xmlns="http://www.w3.org/2000/svg" width="65" height="65">
    <path fill="#B31F1F" fill-opacity="0" fill-rule="evenodd" d="M0 0h65v65H0V0z"/>
    <path fill="#0C0C0C" fill-rule="evenodd" d="M60.639 34.329H10.038l15.686 15.64c.921.918.921 2.406 0 3.325-.461.459-1.064.689-1.669.689-.604 0-1.207-.23-1.668-.689L2.673 33.64c-.024-.024-.031-.057-.054-.082-.188-.204-.352-.43-.46-.691-.003-.007-.004-.014-.006-.022-.108-.269-.171-.56-.171-.868 0-.307.063-.598.17-.867.115-.29.287-.562.521-.796h.001l19.713-19.653c.92-.919 2.415-.919 3.337 0 .921.918.921 2.408 0 3.326L10.038 29.625h50.601c1.304 0 2.359 1.053 2.359 2.352s-1.055 2.352-2.359 2.352z"/>
</svg>
