<svg xmlns="http://www.w3.org/2000/svg" width="200" height="200">
    <path fill="#0C0C0C" fill-opacity="0" fill-rule="evenodd" d="M0 .375h199.625V200H0V.375z"/>
    <path fill="#0C0C0C" fill-rule="evenodd" d="M150.883 199.972c-17.636 0-32.707-11.357-38.502-27.245H8.598c-1.138 0-2.062-.937-2.062-2.093V2.492c0-1.155.924-2.093 2.062-2.093h111.926c.594 0 1.161.262 1.553.717l30.352 35.291c.315.363.51.84.515 1.36v78.897c21.676 1.095 38.981 19.348 38.981 41.627 0 22.982-18.412 41.681-41.042 41.681zM122.519 7.996l-.331 27.68 24.155.019-23.824-27.699zm26.302 31.886l-28.721-.021c-.552 0-1.079-.224-1.466-.622-.386-.401-.601-.938-.594-1.496l.397-33.157H10.659V168.54h100.44c-.82-3.28-1.259-6.713-1.259-10.249 0-22.279 17.304-40.533 38.981-41.627V39.882zm2.062 80.916c-20.358 0-36.921 16.818-36.921 37.493 0 20.676 16.563 37.494 36.921 37.494s36.919-16.818 36.919-37.494c0-20.675-16.561-37.493-36.919-37.493zm0 58.459c-2.345 0-4.246-1.93-4.246-4.311 0-2.381 1.901-4.312 4.246-4.312 2.344 0 4.245 1.931 4.245 4.312 0 2.381-1.901 4.311-4.245 4.311zm-2.062-45.086h4.123v29.408h-4.123v-29.408zM37.286 94.464h84.909v4.187H37.286v-4.187zm0-19.596h84.909v4.187H37.286v-4.187zm0-19.599h84.909v4.187H37.286v-4.187zm57.893 62.978H37.286v-4.187h57.893v4.187z"/>
</svg>
