<svg xmlns="http://www.w3.org/2000/svg" width="65" height="65">
    <path fill="#B31F1F" fill-opacity="0" fill-rule="evenodd" d="M0 0h65v65H0V0z"/>
    <path fill="#0C0C0C" fill-rule="evenodd" d="M61.229 61.228c-.516.515-1.19.771-1.862.771-.674 0-1.348-.256-1.862-.771L43.376 46.205c-4.523 3.634-10.03 5.458-15.54 5.458-6.362 0-12.722-2.421-17.565-7.264-4.691-4.69-7.277-10.93-7.277-17.566 0-6.636 2.586-12.875 7.277-17.565 9.685-9.688 25.445-9.686 35.131 0H45.4c4.692 4.69 7.276 10.929 7.276 17.565 0 5.775-1.961 11.249-5.562 15.664l14.115 15.009c1.027 1.027 1.027 2.695 0 3.722zM41.678 12.989c-3.815-3.815-8.829-5.724-13.842-5.724-5.014 0-10.026 1.908-13.842 5.724-3.699 3.699-5.735 8.615-5.735 13.844 0 5.23 2.036 10.147 5.735 13.843 7.633 7.635 20.053 7.635 27.684 0 3.697-3.696 5.733-8.613 5.733-13.843 0-5.229-2.036-10.145-5.733-13.844z"/>
</svg>
