<svg xmlns="http://www.w3.org/2000/svg" width="65" height="65">
    <path fill="#B31F1F" fill-opacity="0" fill-rule="evenodd" d="M0 0h65v65H0V0z"/>
    <path fill="#0C0C0C" fill-rule="evenodd" d="M23.821 49.003c-3.011 0-5.426 2.464-5.426 5.5 0 3.038 2.415 5.5 5.426 5.5 3.013 0 5.454-2.462 5.454-5.5 0-3.036-2.441-5.5-5.454-5.5zM4.733 10.498h8.181l9.808 20.866-3.686 6.745c-.631 1.163-.859 2.582-.493 4.053.611 2.462 2.957 4.09 5.475 4.09h29.801c1.506 0 2.726-1.23 2.726-2.75 0-1.518-1.22-2.75-2.726-2.75H24.977c-.378 0-.683-.307-.683-.687 0-.122.031-.237.086-.334l2.448-4.48h20.314c2.049 0 3.836-1.141 4.768-2.831l9.751-17.845c.217-.391.338-.846.338-1.326 0-1.519-1.221-2.751-2.727-2.751H18.948l-1.104-2.352c-.875-1.861-2.754-3.148-4.93-3.148H4.733c-1.506 0-2.728 1.23-2.728 2.749 0 1.521 1.222 2.751 2.728 2.751zm46.358 38.505c-3.011 0-5.426 2.464-5.426 5.5 0 3.038 2.415 5.5 5.426 5.5 3.012 0 5.454-2.462 5.454-5.5 0-3.036-2.442-5.5-5.454-5.5z"/>
</svg>
