<svg xmlns="http://www.w3.org/2000/svg" width="170" height="30">
    <path fill="#F84A49" fill-opacity="0" fill-rule="evenodd" d="M0 0h170v30H0V0z"/>
    <path fill="#F84A49" fill-rule="evenodd" d="M155.002 24.313l9.27 5.691-2.452-10.731 8.182-7.217-10.787-.941L155.002.998l-4.213 10.117-10.786.941 8.182 7.217-2.452 10.731 9.269-5.691zM120.002 24.313l9.27 5.691-2.454-10.731 8.184-7.217-10.787-.941L120.002.998l-4.213 10.117-10.787.941 8.183 7.217-2.452 10.731 9.269-5.691zM85.001 24.313l9.27 5.691-2.453-10.731 8.184-7.217-10.787-.941L85.001.998l-4.212 10.117-10.786.941 8.182 7.217-2.452 10.731 9.268-5.691zM50.002 24.313l9.27 5.691-2.452-10.731 8.182-7.217-10.787-.941L50.002.998l-4.213 10.117-10.786.941 8.182 7.217-2.452 10.731 9.269-5.691zM15.002 24.313l9.27 5.691-2.454-10.731 8.184-7.217-10.787-.941L15.002.998 10.79 11.115l-10.788.941 8.183 7.217-2.452 10.731 9.269-5.691z"/>
</svg>
