<svg xmlns="http://www.w3.org/2000/svg" width="170" height="30">
    <path fill="#F84A49" fill-opacity="0" fill-rule="evenodd" d="M0 0h170v30H0V0z"/>
    <path fill="#F84A49" fill-opacity="0" fill-rule="evenodd" d="M140 0h30v30h-30V0z"/>
    <path fill="#C8C8C8" fill-rule="evenodd" d="M155.002 23.314l9.27 5.69-2.452-10.731 8.182-7.216-10.787-.942-4.213-10.117-4.213 10.117-10.786.942 8.182 7.216-2.452 10.731 9.269-5.69z"/>
    <path fill="#F84A49" fill-rule="evenodd" d="M120.002 23.314l9.27 5.69-2.454-10.731 8.184-7.216-10.787-.942-4.213-10.117-4.213 10.117-10.787.942 8.183 7.216-2.452 10.731 9.269-5.69zM85.001 23.314l9.27 5.69-2.453-10.731 8.184-7.216-10.787-.942L85.001-.002l-4.212 10.117-10.786.942 8.182 7.216-2.452 10.731 9.268-5.69zM50.002 23.314l9.27 5.69-2.452-10.731 8.182-7.216-10.787-.942L50.002-.002l-4.213 10.117-10.786.942 8.182 7.216-2.452 10.731 9.269-5.69z"/>
    <path fill="#F84A49" fill-opacity="0" fill-rule="evenodd" d="M0 0h30v30H0V0z"/>
    <path fill="#F84A49" fill-rule="evenodd" d="M15.002 23.314l9.27 5.69-2.454-10.731 8.184-7.216-10.787-.942L15.002-.002 10.79 10.115l-10.788.942 8.183 7.216-2.452 10.731 9.269-5.69z"/>
</svg>
