<svg xmlns="http://www.w3.org/2000/svg" width="65" height="65">
    <path fill="#FFF" fill-opacity="0" fill-rule="evenodd" d="M0 0h65v65H0V0z"/>
    <path fill="#FFF" fill-rule="evenodd" d="M48.666 43.602c-2.108 0-4.009.834-5.453 2.17l-19.797-11.69c.15-.633.25-1.283.25-1.961 0-.679-.1-1.329-.25-1.962l19.586-11.563c1.488 1.402 3.469 2.279 5.664 2.279 4.6 0 8.332-3.777 8.332-8.434 0-4.658-3.732-8.435-8.332-8.435-4.601 0-8.333 3.777-8.333 8.435 0 .678.1 1.329.25 1.962L20.997 25.964c-1.489-1.402-3.469-2.277-5.664-2.277-4.602 0-8.334 3.776-8.334 8.434 0 4.657 3.732 8.434 8.334 8.434 2.195 0 4.175-.876 5.664-2.279l19.788 11.685c-.132.593-.222 1.204-.222 1.84 0 4.529 3.63 8.2 8.103 8.2 4.472 0 8.102-3.671 8.102-8.2s-3.63-8.199-8.102-8.199z"/>
</svg>
