<svg xmlns="http://www.w3.org/2000/svg" width="110" height="110">
    <path fill="#8C8C8C" fill-opacity="0" fill-rule="evenodd" d="M0 0h110v110H0V0z"/>
    <path fill="#0C0C0C" fill-rule="evenodd" d="M52.421 94.589l-5.086 9.505c-.511.957-1.851 1.303-2.866.344l-5.27-9.849H27.69V75.558h27.811l4.107 7.677c.905 1.691 2.659 2.742 4.577 2.742 1.919 0 3.673-1.051 4.578-2.742l4.108-7.677h12.895V37.492h14.232v57.097H52.421zm13.317-13.037c-.214.398-.557.726-.985.87-.838.281-1.704-.094-2.094-.821l-5.085-9.505H9.997V15h72.308v57.096H70.797l-5.059 9.456zm-6.055-50.667H32.619c-.956 0-1.731.775-1.731 1.73 0 .956.775 1.732 1.731 1.732h27.064c.957 0 1.731-.776 1.731-1.732 0-.955-.774-1.73-1.731-1.73zm0 10.932H32.619c-.956 0-1.731.775-1.731 1.731 0 .956.775 1.731 1.731 1.731h27.064c.957 0 1.731-.775 1.731-1.731 0-.956-.774-1.731-1.731-1.731zm0 10.932H32.619c-.956 0-1.731.775-1.731 1.731 0 .956.775 1.731 1.731 1.731h27.064c.957 0 1.731-.775 1.731-1.731 0-.956-.774-1.731-1.731-1.731z"/>
</svg>
