<svg xmlns="http://www.w3.org/2000/svg" width="110" height="110">
    <path fill="#8C8C8C" fill-opacity="0" fill-rule="evenodd" d="M0 0h110v110H0V0z"/>
    <path fill="#0C0C0C" fill-rule="evenodd" d="M85.459 87.199c-10.775 0-19.539-8.715-19.539-19.427 0-10.714 8.764-19.428 19.539-19.428 10.775 0 19.54 8.714 19.54 19.428 0 10.712-8.765 19.427-19.54 19.427zm10.744-21.341h-8.814v-8.776H82.53v13.602h13.673v-4.826zM61.06 67.772c0 13.925 10.395 24.253 24.399 24.253V100H4.999V34.543h29.505v9.718h21.451v-9.718h29.504v8.975c-14.004 0-24.399 10.329-24.399 24.254zm-5.106-47.773h29.504v9.718H55.954v-9.718zm-16.591 0h11.732v19.435H39.363V19.999zm-34.364 0h29.504v9.718H4.999v-9.718z"/>
</svg>
