<svg xmlns="http://www.w3.org/2000/svg" width="22" height="22">
    <path fill="#C8C8C8" fill-opacity="0" fill-rule="evenodd" d="M0 0h22v22H0V0z"/>
    <path fill="#0C0C0C" fill-rule="evenodd" d="M21.653 11.989l-10.068 8.895c-.227.215-.526.323-.822.323-.299 0-.597-.108-.823-.323-.455-.429-.455-1.125 0-1.555l9.188-8.117L9.94 3.095c-.455-.43-.455-1.126 0-1.556.453-.43 1.19-.43 1.645 0l10.068 8.896c.455.428.455 1.126 0 1.554zm-9 0L2.584 20.884c-.226.215-.525.323-.821.323-.299 0-.597-.108-.823-.323-.455-.429-.455-1.125 0-1.555l9.188-8.117L.94 3.095c-.455-.43-.455-1.126 0-1.556.453-.43 1.19-.43 1.644 0l10.069 8.896c.455.428.455 1.126 0 1.554z"/>
</svg>
