<svg xmlns="http://www.w3.org/2000/svg" width="22" height="22">
    <path fill="#C8C8C8" fill-opacity="0" fill-rule="evenodd" d="M0 0h22v22H0V0z"/>
    <path fill="#0C0C0C" fill-rule="evenodd" d="M11.872 11.212l9.188 8.117c.455.43.455 1.126 0 1.555-.226.215-.524.323-.823.323-.296 0-.595-.108-.821-.323L9.347 11.989c-.455-.428-.455-1.126 0-1.554l10.069-8.896c.454-.43 1.191-.43 1.644 0 .455.43.455 1.126 0 1.556l-9.188 8.117zm-9 0l9.188 8.117c.455.43.455 1.126 0 1.555-.226.215-.524.323-.823.323-.296 0-.595-.108-.822-.323L.347 11.989c-.455-.428-.455-1.126 0-1.554l10.068-8.896c.455-.43 1.192-.43 1.645 0 .455.43.455 1.126 0 1.556l-9.188 8.117z"/>
</svg>
