<svg xmlns="http://www.w3.org/2000/svg" width="23" height="22">
    <path fill="#C8C8C8" fill-opacity="0" fill-rule="evenodd" d="M0 0h22v22H0V0z"/>
    <path fill="#C8C8C8" fill-rule="evenodd" d="M21.69 11.77l-9.883 8.895c-.223.215-.518.323-.81.323-.293 0-.587-.108-.81-.323-.447-.429-.447-1.125 0-1.555l9.02-8.117-9.02-8.117c-.447-.43-.447-1.126 0-1.555.447-.431 1.172-.431 1.62 0l9.883 8.895c.447.428.447 1.126 0 1.554zm-9.846 0l-9.883 8.895c-.223.215-.517.323-.809.323-.295 0-.588-.108-.811-.323-.448-.429-.448-1.125 0-1.555l9.019-8.117L.341 2.876c-.448-.43-.448-1.126 0-1.555.447-.431 1.172-.431 1.62 0l9.883 8.895c.448.428.448 1.126 0 1.554z"/>
</svg>
