<svg xmlns="http://www.w3.org/2000/svg" width="22" height="22">
    <path fill="#C8C8C8" fill-opacity="0" fill-rule="evenodd" d="M0 0h22v22H0V0z"/>
    <path fill="#C8C8C8" fill-rule="evenodd" d="M12.64 10.993l9.019 8.117c.448.43.448 1.126 0 1.555-.223.215-.516.323-.811.323-.292 0-.586-.108-.809-.323l-9.883-8.895c-.448-.428-.448-1.126 0-1.554l9.883-8.895c.448-.431 1.173-.431 1.62 0 .448.429.448 1.125 0 1.555l-9.019 8.117zm-9.847 0l9.02 8.117c.447.43.447 1.126 0 1.555-.223.215-.517.323-.81.323-.292 0-.587-.108-.81-.323L.31 11.77c-.447-.428-.447-1.126 0-1.554l9.883-8.895c.448-.431 1.173-.431 1.62 0 .447.429.447 1.125 0 1.555l-9.02 8.117z"/>
</svg>
