<svg xmlns="http://www.w3.org/2000/svg" width="110" height="56">
    <path fill="#FFF" fill-rule="evenodd" d="M109.755 42.582c-.856.001-1.712-.003-2.569.004-.172.001-.287-.044-.4-.178-1.82-2.131-3.646-4.257-5.47-6.384-.798-.931-1.596-1.861-2.393-2.793-.027-.031-.04-.073-.059-.11l-.08.041v9.375c-.248.058-3.032.077-3.646.029-.008-.006-.018-.011-.024-.019-.006-.007-.013-.017-.013-.025l-.01-15.397c0-.038.01-.077.018-.132.077-.006.148-.016.22-.016.877-.002 1.754.003 2.632-.005.164-.001.272.045.376.167 1.837 2.157 3.679 4.31 5.519 6.463l2.31 2.702c.026.029.059.053.128.115.051-.374.02-.71.025-1.043.006-.354.002-.709.002-1.063v-1.032-1.063-1.033-1.063-1.032-1.063-1.036H110v15.572c-.082.007-.164.019-.245.019zm-25.525-.014c-.009-.006-.018-.012-.025-.019-.006-.007-.014-.016-.014-.025L84.18 27.19c0-.059.007-.118.013-.202h3.719v15.55c-.218.059-2.929.083-3.682.03zm-1.226 13.326c-.364.039-.734.043-1.101.051-.411.008-.822.001-1.266.001v-3.94h.325c.518 0 1.037-.015 1.554.006.301.012.61.049.898.132.868.253 1.453.98 1.372 2.034-.067.872-.76 1.607-1.782 1.716zm-.213-2.958c-.331-.062-.686-.011-1.044-.011v2.118c.305 0 .588.008.87-.002.589-.019 1.023-.422 1.042-1.01.019-.553-.239-.978-.868-1.095zm-5.657 3.03c-.529.074-1.026.027-1.503-.189-.795-.361-1.192-.989-1.188-1.814.004-.813.403-1.43 1.185-1.786.684-.312 1.393-.321 2.076-.028.815.349 1.236.974 1.24 2.011.023.906-.864 1.673-1.81 1.806zm-.435-3.118c-.652.001-1.135.489-1.127 1.14.008.642.481 1.114 1.119 1.116.663.003 1.119-.465 1.114-1.139-.006-.661-.458-1.117-1.106-1.117zM73.28 42.57v-6.391h-7.374c-.01.007-.02.013-.026.02-.006.008-.01.018-.013.027-.004.009-.008.019-.009.029-.002.03-.003.06-.003.091l-.007 6.164c0 .01-.004.02-.006.029-.226.055-3.104.075-3.691.026-.058-.216-.075-15.173-.016-15.573h3.72v6.118h7.375l.021-.021c.006-.008.014-.016.018-.025.004-.009.004-.019.005-.029.002-.041.005-.081.005-.122l.007-5.861c0-.01.003-.019.005-.029.224-.061 3.014-.084 3.691-.031.059.211.081 15.105.02 15.578H73.28zM70.436 9.451l-.695.528-1.901-2.313 3.185-2.402.698.848-2.48 1.876 1.193 1.463zm-4.822-4.055l-1.568-.676-.623.56-1.04-.453 3.296-2.831.996.433v4.254l-1.061-.454v-.833zm.123-2.146l-.08-.022-.966.9.973.416.073-1.294zM59.74 4.323l.809-3.779c.385.036.745.121 1.107.207l-.814 3.791-1.102-.219zm-.154 48.419c-.326.532-.649 1.065-.984 1.592-.087.137-.12.272-.118.428.006.383.002.766.002 1.166h-1.111c-.008-.07-.022-.146-.023-.223-.003-.303-.01-.607.002-.91.008-.192-.047-.353-.148-.514-.414-.658-.82-1.32-1.229-1.982-.052-.085-.099-.174-.166-.292.374 0 .711.004 1.047-.002.134-.003.182.082.235.17l.69 1.124.185.29.974-1.572h1.083c-.155.255-.296.491-.439.725zm-3.229-37.43l-1.004 1.023 1.752 1.565-.813.728-1.59-1.623-1.637 1.668c-.273-.234-.511-.486-.794-.746l.869-.797.888-.817-.492-.506c-.322.106-.648.144-.987.055-.74-.196-1.321-.837-1.398-1.564-.088-.825.65-1.475 1.502-1.323.822.147 1.439.727 1.558 1.513.036.241-.024.495-.042.793l.499.449 1.122-1.017-.511-.394 1.79-1.765.314.286-1.028.997.292.295c.39-.29.682-.665 1.076-.972l.306.292-1.026.999.323.295 1.024-.981.25.281-1.778 1.698-.465-.432zm.795-14.186c-.46-.368-1.464-.345-1.776.434-.235.585.008 1.2.425 1.424.411.22.821.236 1.232.008.117-.066.223-.151.36-.245l.666.622c-.306.363-.702.558-1.147.623-.58.085-1.157.058-1.695-.222-.746-.389-1.137-1.14-1.06-1.951C54.266.666 55.278 0 56.313.001c.556.001 1.065.124 1.512.449.117.085.229.176.379.292l-.76.62-.292-.236zM48.543.733c.51-.12 1.029-.176 1.542-.259L51.67.217l.139.811c-.353.06-.684.117-1.015.172-.321.053-.642.102-.996.159l.102.665 1.782-.275.145.781-1.778.297.115.707c.709-.073 1.385-.222 2.099-.312l.151.802c-1.069.186-2.125.348-3.208.515L48.543.733zm-3.147 3.985c-.219.098-.44.191-.692.301l.416.925c-.168.075-.335.151-.503.224-.162.07-.325.138-.52.22l-1.655-3.545c.636-.268 1.24-.53 1.85-.778.356-.144.727-.197 1.114-.122.933.181 1.422 1.285.909 2.056-.224.337-.551.553-.919.719zm-.027-1.476c-.135-.361-.407-.492-.807-.362-.238.078-.463.191-.723.3l.248.532c.082.17.166.339.26.531.28-.128.535-.226.77-.357.272-.152.349-.383.252-.644zm-5.134 6.351c-.036.016-.081.014-.152.026l-.384-.731.272-.134c.372-.182.702-.414.94-.748.065-.091.126-.189.164-.292.082-.223-.101-.416-.339-.351-.118.032-.228.104-.33.173-.259.176-.508.364-.766.539-.103.07-.215.131-.331.177-.849.339-1.603-.393-1.516-1.122.027-.225.103-.457.211-.66.328-.612.828-1.064 1.519-1.377l.425.751-.295.16c-.308.168-.581.373-.763.669-.056.093-.104.203-.112.308-.018.25.182.378.413.26.176-.09.335-.211.498-.322.215-.146.419-.309.643-.441.871-.511 1.618.078 1.712.765.028.202-.008.43-.082.622-.312.811-.922 1.363-1.727 1.728zm-2.428 20.225c-.373.058-.729.021-1.083.028-.349.006-.698.001-1.047.001h-6.391c-.067.238-.084 2.986-.023 3.423h7.485c.066.227.083 2.367.025 2.794h-7.488c-.068.257-.077 3.285-.012 3.619h8.786c.063.246.077 2.489.023 2.883H25.503V26.991h12.3c.008.937.002 1.873.004 2.827zM26.359 53.506h1.599c.034-.485-.005-.976.024-1.482h1.086v3.906h-1.086c-.027-.487.002-.977-.016-1.483h-1.6c-.034.484.005.976-.023 1.482h-1.086v-3.906h1.086c.026.486-.002.977.016 1.483zM14.852 42.571l-.051-9.331c-.094.132-.149.201-.195.275-1.464 2.355-2.925 4.711-4.393 7.064-.27.433-.127.347-.663.355-.328.004-.656-.01-.983.005-.197.009-.301-.067-.399-.222-1.016-1.611-2.039-3.217-3.06-4.824-.467-.734-.933-1.469-1.401-2.202-.042-.067-.092-.13-.131-.185-.031-.001-.045-.006-.051-.001-.007.004-.009.018-.011.027-.003.02-.006.04-.007.06v.122l-.001 8.716c0 .02-.001.041-.003.061l-.006.03c-.003.009-.008.017-.021.044H.045C-.01 42.33-.019 27.318.037 26.991H3.11l6.058 9.629c.03 0 .041.002.051 0 .01-.002.022-.004.027-.01.02-.023.04-.047.056-.073l.52-.834 5.333-8.611c.016-.026.035-.05.054-.074.007-.008.017-.013.042-.03h3.02c.067.24.12 15.08.053 15.583h-3.472zm19.196 10.27h-2.036v.676H33.8v.84c-.289.022-.591.007-.892.009-.293.003-.587.001-.898.001v.722c.346.032.7.011 1.054.014.346.004.692.001 1.055.001v.801c-.227.054-2.898.061-3.217.006V52.02h3.146v.821zm4.21-.824l1.788 3.91H38.88l-.318-.693h-1.748l-.321.697h-1.142l1.782-3.914h1.125zm-.547 2.357c.161-.005.326.025.502-.031l-.495-1.181-.064.003-.505 1.21c.228 0 .396.004.562-.001zm4.75-2.352v3.051c.332.061.646.023.957.03.316.007.633.001.989.001.02.273.014.539.001.824h-3.002c-.062-.207-.084-3.405-.025-3.906h1.08zm1-22.126h-.846c-.062-.236-.078-2.506-.023-2.903h14.097c.063.208.084 2.415.022 2.899-.857.01-1.721.003-2.584.004h-2.593c-.019.864-.007 1.7-.009 2.537-.002.84-.001 1.68-.001 2.52v7.586c-.245.054-3.233.07-3.748.019V29.916c-.294-.04-.577-.014-.858-.019-.286-.004-.571-.001-.857-.001h-2.6zm5.709 22.537v.41h-1.256c-.013.361-.005.701-.006 1.041-.002.333-.001.667-.001 1v1.044h-1.122c-.003-.242-.007-.49-.008-.739v-.788-.758-.799h-1.218v-.819h3.607l.004.408zm2.547 1.033c.237.07 1.179.085 1.616.031v-1.445c.194-.08.374-.036.548-.044.178-.008.356-.002.554-.002v3.935c-.347.009-.699.01-1.101-.005v-1.495h-1.595v1.46c-.194.08-.374.036-.548.044-.178.007-.356.001-.553.001v-3.934c.346-.01.699-.011 1.079.004v1.45zm15.444-1.443v.821H65.13v.924h1.788v.833h-1.8v1.33h-1.067c-.059-.216-.077-3.506-.019-3.908h3.129zm3.152-.031c.415-.065.812-.044 1.213.059.806.208 1.545.93 1.515 1.927.031 1.081-.847 1.845-1.793 1.987-.563.084-1.09.019-1.591-.22-.793-.378-1.255-1.224-1.077-2.161.154-.807.867-1.456 1.733-1.592zm-.486 2.566c.234.422.726.66 1.296.506.496-.134.782-.548.782-1.088-.004-.435-.164-.796-.579-1.007-.383-.195-.777-.179-1.142.047-.502.311-.655 1.004-.357 1.542z"/>
</svg>
