<svg xmlns="http://www.w3.org/2000/svg" width="961" height="181">
    <path fill="#EFEFEF" fill-rule="evenodd" d="M0 0h961v176.999H0V0z"/>
    <path fill="#E96C4E" fill-rule="evenodd" d="M538.412 131.331c1.372.766 2.783 1.463 4.226 2.088 5.83 3.751 12.877 5.617 19.83 5.512 10.057-.15 19.642-4.435 27.314-10.742 7.975-6.556 14.724-15.682 16.629-25.966 1.986-10.727-1.998-21.317-7.619-30.333-5.751-9.223-13.092-17.501-21.419-24.498-7.694-6.464-17.843-13.844-28.552-11.775-5.056.977-9.168 4.221-12.7 7.786-4.176 4.216-8.097 8.703-12.117 13.065-3.86 4.19-7.856 8.297-11.38 12.776-3.162 4.017-5.998 8.493-7.288 13.483-1.282 4.964-.775 10.024 1.176 14.744 1.997 4.834 5.243 9.075 8.623 13.029 6.732 7.875 14.129 15.721 23.277 20.831z"/>
    <path fill="#FAB157" fill-rule="evenodd" d="M664.814 178.513c-.589.752-1.167 1.52-1.726 2.304h89.332c-5.825-9.285-13.214-17.628-21.582-24.693-7.845-6.625-18.193-14.186-29.114-12.065-5.156 1-9.349 4.325-12.95 7.977-4.259 4.32-8.257 8.918-12.355 13.388-3.938 4.292-8.011 8.5-11.605 13.089z"/>
</svg>
