<svg xmlns="http://www.w3.org/2000/svg" width="1920" height="185">
    <path fill="#ECECEC" fill-rule="evenodd" d="M0 .001h1920v176.998H0V.001z"/>
    <path fill="#E96C4E" fill-rule="evenodd" d="M1138.411 135.33c1.372.767 2.784 1.465 4.227 2.088 5.83 3.752 12.878 5.618 19.83 5.514 10.057-.15 19.642-4.435 27.314-10.743 7.975-6.556 14.724-15.682 16.629-25.965 1.987-10.729-1.998-21.317-7.62-30.334-5.75-9.223-13.091-17.502-21.418-24.497-7.694-6.465-17.843-13.846-28.552-11.776-5.056.977-9.168 4.222-12.7 7.786-4.177 4.216-8.097 8.702-12.117 13.066-3.86 4.188-7.856 8.296-11.38 12.776-3.162 4.017-5.998 8.492-7.288 13.483-1.282 4.963-.774 10.022 1.176 14.743 1.997 4.834 5.243 9.076 8.623 13.029 6.732 7.874 14.129 15.722 23.276 20.83z"/>
    <path fill="#FAB157" fill-rule="evenodd" d="M1264.813 182.513c-.588.753-1.166 1.521-1.725 2.304h89.332c-5.825-9.286-13.214-17.627-21.582-24.692-7.846-6.625-18.194-14.187-29.114-12.066-5.156 1.001-9.349 4.325-12.95 7.978-4.259 4.32-8.256 8.917-12.355 13.386-3.938 4.292-8.011 8.502-11.606 13.09z"/>
</svg>
