<svg xmlns="http://www.w3.org/2000/svg" width="18" height="18">
    <path fill="#0C0C0C" fill-opacity="0" fill-rule="evenodd" d="M0 0h18v18H0V0z"/>
    <path fill="#0C0C0C" fill-rule="evenodd" d="M13.092 17.008H5.9c-2.708 0-4.907-2.197-4.907-4.91V4.903C.993 2.19 3.192-.008 5.9-.008h7.192C15.804-.008 18 2.19 18 4.903v7.195c0 2.713-2.196 4.91-4.908 4.91zm3.342-12.147c0-1.801-1.459-3.26-3.26-3.26H5.817c-1.798 0-3.259 1.459-3.259 3.26v7.363c0 1.8 1.461 3.261 3.259 3.261h7.357c1.801 0 3.26-1.461 3.26-3.261V4.861zm-2.377.127c-.569 0-1.028-.461-1.028-1.031 0-.567.459-1.027 1.028-1.027.567 0 1.028.46 1.028 1.027 0 .57-.461 1.031-1.028 1.031zm-4.561 7.97c-2.439 0-4.412-1.979-4.412-4.416 0-2.438 1.973-4.415 4.412-4.415 2.436 0 4.415 1.977 4.415 4.415 0 2.437-1.979 4.416-4.415 4.416zm0-7.28c-1.581 0-2.861 1.284-2.861 2.864 0 1.581 1.28 2.862 2.861 2.862 1.579 0 2.861-1.281 2.861-2.862 0-1.58-1.282-2.864-2.861-2.864z"/>
</svg>
