<svg xmlns="http://www.w3.org/2000/svg" width="18" height="18">
    <path fill="#0C0C0C" fill-opacity="0" fill-rule="evenodd" d="M0 0h18v18H0V0z"/>
    <path fill="#0C0C0C" fill-rule="evenodd" d="M17.72 4.546c-.345-1.51-.987-2.092-2.171-2.299-.68-.112-3.953-.253-6.553-.253-2.598 0-5.871.141-6.55.253-1.184.207-1.828.791-2.17 2.299-.115.502-.277 3.278-.277 4.334v.234c0 1.058.162 3.831.277 4.337.342 1.507.986 2.086 2.17 2.296.679.111 3.957.25 6.557.25l-.013.002c2.601 0 5.878-.141 6.559-.252 1.184-.21 1.826-.789 2.171-2.296.116-.506.273-3.279.273-4.337V8.88c0-1.056-.157-3.832-.273-4.334zM6.84 11.528V6.465l4.313 2.474-4.313 2.589z"/>
</svg>
