<svg xmlns="http://www.w3.org/2000/svg" width="25" height="25">
    <path fill="#FFF" fill-opacity="0" fill-rule="evenodd" d="M0 0h25v25H0V0z"/>
    <path fill="#FFF" fill-rule="evenodd" d="M9.092 19.4c-1.254 0-2.261 1.031-2.261 2.301 0 1.27 1.007 2.3 2.261 2.3 1.255 0 2.273-1.03 2.273-2.3 0-1.27-1.018-2.301-2.273-2.301zM1.139 3.299h3.408l4.088 8.726-1.536 2.82c-.263.487-.359 1.08-.207 1.695.255 1.029 1.233 1.71 2.282 1.71h12.417c.627 0 1.137-.513 1.137-1.149 0-.635-.51-1.15-1.137-1.15H9.573c-.156 0-.284-.128-.284-.288 0-.05.013-.099.035-.138l1.021-1.875h8.464c.854 0 1.598-.477 1.987-1.183l4.062-7.463c.091-.164.142-.353.142-.554 0-.636-.509-1.151-1.137-1.151H7.062l-.46-.983C6.237 1.537 5.454.999 4.547.999H1.139c-.628 0-1.136.515-1.136 1.15 0 .636.508 1.15 1.136 1.15zM20.454 19.4c-1.254 0-2.26 1.031-2.26 2.301 0 1.27 1.006 2.3 2.26 2.3 1.256 0 2.274-1.03 2.274-2.3 0-1.27-1.018-2.301-2.274-2.301z"/>
</svg>
