<svg xmlns="http://www.w3.org/2000/svg" width="18" height="18">
    <path fill="#FFF" fill-opacity="0" fill-rule="evenodd" d="M0 0h18v18H0V0z"/>
    <path fill="#FFF" fill-rule="evenodd" d="M17.716 17.728c-.175.176-.406.264-.636.264-.23 0-.461-.088-.636-.264l-4.257-4.266c-1.36 1.069-2.987 1.636-4.632 1.636-1.931 0-3.864-.736-5.334-2.209C.797 11.463.012 9.565.012 7.548c0-2.018.785-3.915 2.209-5.341 2.941-2.946 7.727-2.946 10.667 0 1.425 1.426 2.209 3.323 2.209 5.341 0 1.711-.594 3.318-1.635 4.642l4.254 4.264c.352.351.352.922 0 1.274zM11.615 3.48c-1.119-1.12-2.59-1.681-4.06-1.681-1.471 0-2.942.56-4.061 1.681-1.085 1.087-1.682 2.532-1.682 4.068 0 1.536.597 2.981 1.682 4.068 2.239 2.242 5.882 2.241 8.121 0 1.086-1.087 1.683-2.532 1.683-4.068 0-1.536-.597-2.981-1.683-4.068z"/>
</svg>
